<svg width="82" height="83" viewBox="0 0 82 83" fill="none" xmlns="http://www.w3.org/2000/svg">
<circle cx="39.9403" cy="42.2214" r="24" transform="rotate(13.9065 39.9403 42.2214)" fill="white"/>
<circle cx="57.7237" cy="27.3351" r="8.46865" transform="rotate(13.9065 57.7237 27.3351)" fill="#1AD993"/>
<path d="M54.089 27.9619L55.1252 28.5341L55.9992 26.9513L57.5304 27.7967L58.1219 26.7256L56.5907 25.8801L57.4647 24.2972L56.4285 23.7251L55.5545 25.3079L54.0233 24.4624L53.4318 25.5336L54.963 26.3791L54.089 27.9619Z" fill="white"/>
<path d="M63.3047 26.2726L62.1267 25.6221L60.1288 25.7722L59.4944 26.9212L61.3376 26.7911L61.3724 26.8103L58.6677 31.7084L59.921 32.4004L63.3047 26.2726Z" fill="white"/>
<path d="M48.9844 40.523L48.695 41.6918C48.2061 43.6569 47.0419 45.3842 45.4156 46.5577C43.7892 47.7312 41.8093 48.2724 39.8382 48.0824L38.9469 51.6822L42.3741 52.5307L41.7953 54.8682L32.6562 52.6054L33.235 50.2679L36.6621 51.1165L37.5534 47.5167C35.7213 46.7651 34.2227 45.3626 33.3318 43.5658C32.4408 41.769 32.2171 39.6981 32.7016 37.7319L32.991 36.5631L35.2757 37.1288L34.9864 38.2976C34.6026 39.8474 34.8364 41.4828 35.6362 42.8439C36.4361 44.2051 37.7365 45.1805 39.2514 45.5556C40.7663 45.9307 42.3716 45.6747 43.7141 44.844C45.0567 44.0133 46.0265 42.6759 46.4102 41.1261L46.6996 39.9573L48.9844 40.523ZM39.8302 43.2181C40.7391 43.4431 41.7023 43.2895 42.5078 42.7911C43.3133 42.2927 43.8952 41.4903 44.1255 40.5604L45.5724 34.7166C45.8026 33.7867 45.6623 32.8055 45.1824 31.9888C44.7025 31.1721 43.9223 30.5868 43.0133 30.3618C42.1044 30.1367 41.1412 30.2903 40.3357 30.7887C39.5302 31.2872 38.9483 32.0896 38.718 33.0195L37.2711 38.8633C37.0409 39.7932 37.1811 40.7744 37.6611 41.5911C38.141 42.4078 38.9212 42.993 39.8302 43.2181Z" fill="#14142B"/>
</svg>
